<?xml version="1.0" encoding="UTF-8"?>
<svg id="Layer_2" data-name="Layer 2" xmlns="http://www.w3.org/2000/svg" viewBox="0 0 190.8 190.8">
  <defs>
    <style>
      .cls-1 {
        fill: none;
      }

      .cls-2, .cls-3 {
        fill: #454da1;
      }

      .cls-4 {
        fill: #ebebeb;
        opacity: .59;
      }

      .cls-5 {
        fill: #8fcae5;
      }

      .cls-3 {
        stroke: #454da1;
        stroke-miterlimit: 10;
        stroke-width: 5px;
      }
    </style>
  </defs>
  <g id="Layer_1-2" data-name="Layer 1">
    <g>
      <path class="cls-4" d="M147.33,15.36C132.38,5.65,114.55,0,95.4,0s-36.98,5.65-51.93,15.36h103.85Z"/>
      <path class="cls-4" d="M189.22,112.79c1.04-5.64,1.59-11.45,1.59-17.38,0-2.33-.09-4.63-.26-6.91H.26c-.16,2.28-.26,4.59-.26,6.91,0,5.94.55,11.75,1.59,17.38h187.63Z"/>
      <path class="cls-4" d="M175.26,147.58c4.97-7.59,8.89-15.91,11.55-24.79H4c2.66,8.88,6.58,17.21,11.55,24.79h159.72Z"/>
      <path class="cls-4" d="M43.46,175.41h103.88c7.62-4.96,14.48-10.97,20.39-17.84H23.07c5.91,6.86,12.77,12.88,20.39,17.84Z"/>
      <path class="cls-4" d="M63.75,185.41c9.9,3.49,20.55,5.39,31.65,5.39s21.74-1.9,31.65-5.39h-63.29Z"/>
      <path class="cls-4" d="M189.3,78.49c-1.5-8.36-4.08-16.35-7.6-23.8H9.11c-3.52,7.45-6.1,15.44-7.6,23.8h187.79Z"/>
      <path class="cls-4" d="M176.21,44.69c-4.49-7.13-9.88-13.63-16.04-19.33H30.63c-6.16,5.7-11.55,12.2-16.04,19.33h161.61Z"/>
      <g>
        <path class="cls-1" d="M144.74,98.86h-1.58c-4.25,0-5.98,1.15-5.98,4.25,0,2.66,1.44,4.46,3.6,4.46,2.88,0,5.11-2.81,5.11-6.62v-.79c0-.94-.29-1.3-1.15-1.3Z"/>
        <path class="cls-2" d="M48.34,79.49c0-1.8-1.3-3.17-3.02-3.17-.5,0-2.23.14-4.97.79-3.17.72-5.47,1.51-5.47,4.46,0,3.31,2.02,3.46,2.02,9.22v10.51c0,5.76-13.35,8.42-13.35,10.07,0,2.45,13.06,2.67,19.04,2.67,5.33,0,6.91-1.8,6.91-4.25,0-1.66-1.15-2.74-1.15-8.5v-21.82Z"/>
        <path class="cls-2" d="M69.94,89.93c-5.69-1.44-6.98-2.23-6.98-4.32,0-1.94,1.8-3.24,4.54-3.24,3.31,0,4.61,1.73,5.9,3.17,1.58,1.8,2.74,2.38,4.54,2.38s2.88-1.22,2.88-3.17c0-1.37-.65-3.67-1.58-5.33-1.01-1.8-2.3-2.81-3.6-2.81-1.01,0-1.8.5-2.74.5-1.15,0-2.74-.79-5.33-.79-8.21,0-14.11,5.04-14.11,12.17,0,6.19,3.74,9.94,12.03,12.03,6.19,1.58,7.34,2.23,7.34,4.1,0,2.3-1.87,3.82-4.75,3.82-4.75,0-6.26-2.16-7.56-3.6-1.58-1.8-2.74-2.38-4.54-2.38s-2.88,1.22-2.88,3.17c0,1.37.65,3.67,1.58,5.33,1.01,1.8,2.3,2.81,3.6,2.81,1.01,0,1.8-.5,2.74-.5,1.15,0,2.95,1.22,6.98,1.22,8.57,0,14.33-4.97,14.33-12.24,0-6.77-3.31-10.01-12.38-12.31Z"/>
        <path class="cls-2" d="M120.7,90.36c0-9-4.1-14.04-12.46-14.04-5.18,0-7.7,3.82-8.93,3.82-.36,0-.5-.22-.5-.94v-15.55c0-1.8-1.3-3.17-3.02-3.17-.5,0-2.23.14-4.97.79-3.17.72-5.47,1.51-5.47,4.46,0,3.31,2.02,3.46,2.02,9.22v26.35c0,5.76-1.15,6.84-1.15,8.5,0,2.45,1.58,4.25,6.91,4.25,5.98,0,7.56-1.8,7.56-4.25,0-1.66-1.87-2.74-1.87-8.5v-8.64c0-5.11,1.94-9.43,5.9-9.43,3.53,0,4.54,2.45,4.54,8.06v10.01c0,5.76-1.87,6.84-1.87,8.5,0,2.45,1.58,4.25,7.56,4.25,5.33,0,6.91-1.8,6.91-4.25,0-1.66-1.15-2.74-1.15-8.5v-10.94Z"/>
        <path class="cls-2" d="M159.29,106.42c-1.37,0-1.94-.79-1.94-2.52v-14.76c0-8.64-5.76-12.82-15.48-12.82-5.4,0-9.87,1.44-12.53,3.74-1.66,1.44-2.52,3.24-2.52,5.26,0,1.87,1.37,4.25,4.9,4.25,4.82,0,5.9-6.34,10.08-6.34,2.88,0,4.1,2.09,4.1,6.91,0,1.94-.58,2.66-2.16,2.66h-1.08c-12.39,0-17.64,3.38-17.64,11.23,0,6.05,4.82,10.44,11.52,10.44,3.74,0,6.7-1.08,8.86-3.24.43-.43.79-.58,1.15-.58s.72.22,1.15.72c1.51,1.94,3.89,3.1,6.41,3.1,4.46,0,21.56-2.3,21.56-5.83,0-1.22-15.15-2.23-16.37-2.23ZM145.89,100.95c0,3.82-2.23,6.62-5.11,6.62-2.16,0-3.6-1.8-3.6-4.46,0-3.1,1.73-4.25,5.98-4.25h1.58c.86,0,1.15.36,1.15,1.3v.79Z"/>
        <circle class="cls-5" cx="42.49" cy="67.45" r="7"/>
      </g>
      <g>
        <path class="cls-3" d="M106.59,123.77c21.8.19,44.8.19,66.98,0"/>
        <path class="cls-3" d="M21.45,123.77c21.26.17,42.51.19,63.77.06"/>
        <circle class="cls-2" cx="21.45" cy="123.77" r="2.5"/>
        <circle class="cls-2" cx="173.57" cy="123.77" r="2.5"/>
      </g>
      <polygon class="cls-5" points="95.4 117.47 96.96 122.27 102.02 122.27 97.93 125.24 99.49 130.05 95.4 127.08 91.31 130.05 92.88 125.24 88.79 122.27 93.84 122.27 95.4 117.47"/>
    </g>
  </g>
</svg>