<?xml version="1.0" encoding="UTF-8"?>
<svg id="Layer_2" data-name="Layer 2" xmlns="http://www.w3.org/2000/svg" viewBox="0 0 128.14 128.38">
  <defs>
    <style>
      .cls-1 {
        fill: #454da1;
      }

      .cls-2 {
        fill: #90cae4;
      }

      .cls-3 {
        fill: #ebebeb;
        opacity: .59;
      }
    </style>
  </defs>
  <g id="Layer_1-2" data-name="Layer 1">
    <g>
      <path class="cls-3" d="M96.87,9.01C87.27,3.29,76.06,0,64.07,0s-23.22,3.29-32.82,9.01h65.62Z"/>
      <path class="cls-3" d="M127.95,57.95c-.55-5.66-1.83-11.1-3.75-16.24H3.93c-1.92,5.13-3.2,10.58-3.74,16.24h127.76Z"/>
      <path class="cls-3" d="M124.57,85.66c1.98-5.59,3.22-11.53,3.58-17.71H0c.36,6.18,1.6,12.12,3.58,17.71h120.99Z"/>
      <path class="cls-3" d="M18.38,109.24h91.39c3.98-4.04,7.43-8.6,10.24-13.58H8.14c2.81,4.98,6.26,9.54,10.24,13.58Z"/>
      <path class="cls-3" d="M31.06,119.24c9.64,5.8,20.93,9.14,33.01,9.14s23.37-3.34,33.01-9.14H31.06Z"/>
      <path class="cls-3" d="M119.43,31.71c-2.73-4.63-6.01-8.9-9.77-12.7H18.47c-2.22,2.24-4.28,4.65-6.15,7.19-1.3,1.77-2.5,3.61-3.61,5.5h110.73Z"/>
      <g>
        <path class="cls-1" d="M29.52,83.89c0-1.66,15.39-2.74,15.39-8.5v-10.51c0-5.76-2.02-5.9-2.02-9.22,0-2.95,2.3-3.74,5.47-4.46,2.74-.65,4.46-.79,4.97-.79,1.73,0,3.02,1.37,3.02,3.17v21.82c0,5.76,1.15,6.84,1.15,8.5,0,2.45-1.58,4.25-6.91,4.25-5.98,0-21.08-1.8-21.08-4.25Z"/>
        <polygon class="cls-2" points="43.94 25.81 50.27 30.46 57.95 28.85 55.49 36.3 59.4 43.11 51.55 43.07 46.28 48.89 43.89 41.42 36.73 38.2 43.1 33.62 43.94 25.81"/>
        <path class="cls-1" d="M62.48,99.73c0-1.66,1.15-2.74,1.15-8.5v-26.35c0-5.76-2.02-5.9-2.02-9.22,0-2.95,2.3-3.74,5.47-4.46,2.74-.65,4.46-.79,4.97-.79,1.73,0,3.02,1.37,3.02,3.17v.5c0,.36.07.5.29.5.94,0,3.46-4.18,9.43-4.18,8.93,0,15.34,7.27,15.34,18.51s-7.42,19.66-18.58,19.66c-1.87,0-4.54-.43-5.11-.43-1.08,0-1.37.5-1.37,1.66v1.44c0,5.76,1.87,6.84,1.87,8.5,0,2.45-1.58,4.25-7.56,4.25-5.33,0-6.91-1.8-6.91-4.25ZM80.56,81.66c4.9,0,7.42-3.89,7.42-12.31s-2.16-12.03-6.12-12.03c-3.74,0-6.77,3.24-6.77,9v12.02c0,2.38,2.02,3.31,5.47,3.31Z"/>
      </g>
    </g>
  </g>
</svg>